PathFileType	4	(X/Y/Z)	Walk9.trc
DataRate	CameraRate	NumFrames	NumMarkers	Units	OrigDataRate	OrigDataStartFrame	OrigNumFrames
200.000000	200.000000	9	59	mm	200.000000	336	523
Frame#	Times		RFHD		RACR1		RUA1		RElbowM		RFA1		RWRU		LACR1		LUA1		LFA1		LWRU		RTH1		LTH2		LFHD		LTB2		RBack		RTH2		LTH4		LASI		CLAV		RTH3		RTB3		LCAR		RTB2		RTB1		LWRR		LTH3		RCAR		C7		RTB4		RElbow		RASI		T10		LBHD		LLFC		RWRR		RBHD		STRN		RPSI		LTB4		LToe		LTB1		LTH1		LElbowM		LElbow		LMMAL		RTH4		LPSI		LCAL		RMT5		LTB3		LMT5		LMT1		RLFC		LLMAL		RMT1		RToe		RCAL		RLMAL		RMMAL
			X1	Y1	Z1	X2	Y2	Z2	X3	Y3	Z3	X4	Y4	Z4	X5	Y5	Z5	X6	Y6	Z6	X7	Y7	Z7	X8	Y8	Z8	X9	Y9	Z9	X10	Y10	Z10	X11	Y11	Z11	X12	Y12	Z12	X13	Y13	Z13	X14	Y14	Z14	X15	Y15	Z15	X16	Y16	Z16	X17	Y17	Z17	X18	Y18	Z18	X19	Y19	Z19	X20	Y20	Z20	X21	Y21	Z21	X22	Y22	Z22	X23	Y23	Z23	X24	Y24	Z24	X25	Y25	Z25	X26	Y26	Z26	X27	Y27	Z27	X28	Y28	Z28	X29	Y29	Z29	X30	Y30	Z30	X31	Y31	Z31	X32	Y32	Z32	X33	Y33	Z33	X34	Y34	Z34	X35	Y35	Z35	X36	Y36	Z36	X37	Y37	Z37	X38	Y38	Z38	X39	Y39	Z39	X40	Y40	Z40	X41	Y41	Z41	X42	Y42	Z42	X43	Y43	Z43	X44	Y44	Z44	X45	Y45	Z45	X46	Y46	Z46	X47	Y47	Z47	X48	Y48	Z48	X49	Y49	Z49	X50	Y50	Z50	X51	Y51	Z51	X52	Y52	Z52	X53	Y53	Z53	X54	Y54	Z54	X55	Y55	Z55	X56	Y56	Z56	X57	Y57	Z57	X58	Y58	Z58	X59	Y59	Z59

336	1.68	-99.686	1425	9.5343	-208.81	1230.6	123.02	-220.06	1096.6	213.12	-294.89	941.44	182.73	-186.26	855.72	262.47	-204.29	758.3	292.79	-192.16	1209.9	-240.58	-169.57	1046.1	-306.27	-90.158	859.04	-332.26	-47.981	756.63	-339.3	-179.72	645.19	178.49	-176.25	572.24	-198.79	-87.686	1435.9	-85.921	-266	206.23	-141.62	-321.38	1160	59.007	-96.055	596.85	141.05	-229.55	565.49	-223.26	-157.2	817.14	-197.04	-122.86	1188	-48.662	-110.79	492.71	132.04	-137.48	141.39	39.038	8.1145	735.9	-333.69	-153.43	227.15	98.552	-85.613	301.3	63.513	-15.581	781.83	-291.15	-236.22	482.93	-193.52	-157.43	702.47	281.17	-263.43	1274.3	-60.534	-115.64	221.22	50.916	-243.48	974.6	254.57	-151.46	846.35	134.03	-353.41	1076.6	-43.61	-216.23	1362.3	-119.33	-220.94	388.07	-155.81	-171.96	756.08	227.52	-231.15	1356.4	12.614	-74.571	1081.7	-34.947	-400.49	853.19	22.893	-248.9	204.45	-82.094	-161.3	27.907	-72.226	-219.6	287.34	-88.093	-224.18	650.19	-243.02	-216.38	897.92	-259.04	-186.29	924.97	-324.13	-313.42	73.424	-29.222	-146.72	567.63	157.21	-407.58	859.05	-81.664	-380.52	49.169	-63.837	-124.22	34.8	91.588	-270.89	123.84	-76.547	-259.1	20.137	-132.27	-215.19	32.396	-46.403	-120.17	407.59	111.76	-335.77	60.266	-107.81	-88.898	46.171	10.948	-46.855	49.936	54.162	-253.83	68.371	13.198	-177.34	96.614	-12.593	-200.72	85.758	67.023
337	1.685	-94.217	1424.6	9.9608	-203.38	1230.1	123.33	-214.79	1096	213.33	-289.77	940.97	182.96	-181.44	855.33	263.15	-199.62	757.94	293.48	-186.5	1209.7	-240.27	-163.92	1046.1	-306.23	-83.055	859.96	-331.54	-39.319	758.21	-337.8	-174.22	644.71	178.82	-172.25	571.58	-198.55	-82.223	1435.5	-85.496	-264.55	205.96	-141.58	-315.98	1159.6	59.148	-90.566	596.65	141.01	-225.54	565.12	-223.11	-151.96	816.33	-196.55	-117.41	1187.6	-48.341	-105.26	492.57	131.28	-122.42	140.3	38.99	17.069	738.4	-331.62	-141.61	225.45	98.321	-76.777	302.03	63.026	-7.6879	784.08	-289.46	-232.66	482.57	-193.43	-152.65	702.19	282.21	-257.93	1274	-60.219	-103.72	220.89	50.646	-238.55	974.21	254.88	-146.34	845.98	134.38	-347.99	1076.2	-43.534	-210.76	1362	-118.94	-218.05	387.49	-155.77	-167	755.65	228.37	-225.68	1356	12.993	-69.212	1081.1	-34.661	-395.13	852.82	23.335	-247.6	204.04	-81.979	-161.24	27.853	-72.232	-217.66	286.69	-87.984	-219.77	649.82	-242.79	-210.24	897.5	-259.15	-180.16	924.72	-324.2	-313.19	73.585	-29.156	-141.19	567.31	157.01	-402.41	858.9	-81.173	-380.41	49.683	-63.853	-104.99	34.353	91.707	-270.18	123.59	-76.502	-259.09	20.148	-132.24	-215.16	32.349	-46.364	-114.61	407.19	111.08	-335.51	60.487	-107.82	-70.26	47.035	10.961	-28.313	52.478	54.076	-235.93	62.803	13.479	-160.58	93.97	-12.495	-183.36	82.274	67.174
338	1.69	-88.744	1424.2	10.407	-197.93	1229.5	123.67	-209.51	1095.4	213.55	-284.61	940.44	183.21	-176.58	854.89	263.87	-194.9	757.53	294.17	-180.86	1209.4	-239.94	-158.25	1046	-306.17	-76.019	860.84	-330.84	-30.79	759.75	-336.33	-168.75	644.18	179.18	-168.25	570.91	-198.34	-76.757	1435.1	-85.05	-263.1	205.68	-141.53	-310.57	1159.2	59.328	-85.185	596.28	141	-221.54	564.73	-222.96	-146.71	815.48	-196.03	-111.96	1187.1	-48.01	-99.981	492.28	130.58	-107.46	139.43	38.974	25.874	740.83	-329.57	-129.89	223.87	98.117	-68.145	302.78	62.572	0.090242	786.25	-287.8	-229.09	482.2	-193.34	-147.83	701.86	283.27	-252.43	1273.6	-59.873	-91.948	220.67	50.405	-233.59	973.77	255.2	-141.15	845.55	134.72	-342.56	1075.8	-43.417	-205.28	1361.6	-118.53	-215.14	386.92	-155.72	-161.97	755.19	229.25	-220.2	1355.5	13.397	-63.845	1080.5	-34.444	-389.74	852.41	23.848	-246.28	203.63	-81.864	-161.17	27.8	-72.246	-215.7	286.04	-87.879	-215.36	649.43	-242.56	-204.1	897.05	-259.26	-174.04	924.46	-324.26	-312.96	73.758	-29.086	-135.8	566.88	156.87	-397.22	858.73	-80.62	-380.3	50.222	-63.862	-85.859	34.246	91.857	-269.45	123.35	-76.453	-259.07	20.158	-132.19	-215.13	32.3	-46.328	-109.29	406.7	110.42	-335.25	60.724	-107.83	-51.777	48.2	11.002	-9.9861	55.307	54.006	-217.97	57.536	13.775	-143.85	91.594	-12.373	-166.01	79.082	67.341
339	1.695	-83.267	1423.7	10.873	-192.48	1228.9	124.04	-204.21	1094.8	213.78	-279.41	939.87	183.46	-171.7	854.4	264.61	-190.16	757.07	294.86	-175.25	1209.2	-239.59	-152.57	1045.9	-306.07	-69.053	861.67	-330.16	-22.393	761.26	-334.87	-163.3	643.58	179.57	-164.25	570.22	-198.14	-71.288	1434.7	-84.583	-261.64	205.4	-141.47	-305.16	1158.7	59.55	-79.914	595.72	141.03	-217.55	564.32	-222.8	-141.44	814.61	-195.5	-106.51	1186.7	-47.669	-94.948	491.83	129.96	-92.641	138.79	38.985	34.527	743.2	-327.56	-118.29	222.42	97.939	-59.716	303.56	62.145	7.7524	788.35	-286.18	-225.52	481.82	-193.24	-142.97	701.49	284.34	-246.94	1273.2	-59.494	-80.332	220.58	50.189	-228.59	973.27	255.53	-135.9	845.06	135.07	-337.14	1075.4	-43.255	-199.81	1361.2	-118.09	-212.21	386.34	-155.67	-156.88	754.67	230.13	-214.73	1355	13.828	-58.467	1079.9	-34.294	-384.3	851.98	24.43	-244.94	203.22	-81.749	-161.09	27.746	-72.27	-213.7	285.38	-87.778	-210.97	649.02	-242.32	-197.98	896.59	-259.35	-167.94	924.18	-324.31	-312.72	73.942	-29.015	-130.56	566.35	156.78	-392.03	858.56	-80.008	-380.19	50.785	-63.861	-66.907	34.478	92.025	-268.72	123.13	-76.399	-259.06	20.165	-132.14	-215.09	32.251	-46.296	-104.19	406.11	109.81	-334.98	60.982	-107.83	-33.512	49.66	11.056	8.0703	58.409	53.931	-200.01	52.605	14.083	-127.21	89.504	-12.237	-148.72	76.203	67.52
340	1.7	-77.784	1423.2	11.361	-187.02	1228.3	124.44	-198.9	1094.1	214.04	-274.16	939.25	183.73	-166.77	853.86	265.38	-185.36	756.56	295.54	-169.68	1208.9	-239.21	-146.86	1045.8	-305.95	-62.158	862.46	-329.49	-14.132	762.71	-333.45	-157.9	642.93	180	-160.24	569.53	-197.97	-65.817	1434.2	-84.095	-260.19	205.13	-141.4	-299.74	1158.1	59.818	-74.756	594.98	141.1	-213.55	563.91	-222.63	-136.15	813.71	-194.97	-101.06	1186.2	-47.317	-90.159	491.23	129.44	-78.012	138.38	39.013	43.028	745.5	-325.57	-106.83	221.12	97.784	-51.486	304.36	61.739	15.298	790.38	-284.59	-221.95	481.44	-193.13	-138.07	701.06	285.42	-241.45	1272.8	-59.079	-68.9	220.61	49.992	-223.55	972.73	255.87	-130.59	844.5	135.41	-331.71	1075	-43.045	-194.35	1360.7	-117.62	-209.26	385.76	-155.6	-151.73	754.11	231.03	-209.26	1354.5	14.287	-53.076	1079.2	-34.205	-378.82	851.53	25.075	-243.58	202.81	-81.634	-161.02	27.692	-72.302	-211.68	284.73	-87.681	-206.59	648.61	-242.08	-191.87	896.11	-259.43	-161.85	923.89	-324.34	-312.49	74.139	-28.94	-125.47	565.71	156.75	-386.81	858.37	-79.342	-380.08	51.375	-63.851	-48.199	35.04	92.197	-267.98	122.91	-76.341	-259.05	20.17	-132.09	-215.05	32.202	-46.267	-99.303	405.45	109.24	-334.71	61.263	-107.82	-15.533	51.4	11.11	25.798	61.756	53.834	-182.14	48.038	14.404	-110.72	87.711	-12.095	-131.56	73.652	67.704
341	1.705	-72.297	1422.7	11.87	-181.55	1227.6	124.87	-193.57	1093.4	214.32	-268.87	938.59	184	-161.81	853.28	266.16	-180.53	755.99	296.23	-164.13	1208.5	-238.81	-141.14	1045.7	-305.79	-55.334	863.21	-328.83	-6.0066	764.12	-332.04	-152.54	642.22	180.44	-156.24	568.82	-197.8	-60.344	1433.7	-83.584	-258.73	204.86	-141.33	-294.32	1157.6	60.134	-69.711	594.06	141.22	-209.57	563.5	-222.47	-130.84	812.8	-194.46	-95.607	1185.6	-46.952	-85.61	490.47	129.03	-63.626	138.2	39.049	51.376	747.71	-323.63	-95.524	219.97	97.647	-43.451	305.18	61.344	22.726	792.33	-283.04	-218.38	481.04	-193	-133.12	700.59	286.49	-235.98	1272.3	-58.627	-57.677	220.77	49.805	-218.47	972.14	256.21	-125.2	843.88	135.73	-326.27	1074.5	-42.784	-188.88	1360.3	-117.13	-206.3	385.17	-155.53	-146.53	753.52	231.93	-203.78	1354	14.776	-47.67	1078.6	-34.171	-373.3	851.06	25.78	-242.21	202.4	-81.521	-160.94	27.637	-72.343	-209.62	284.07	-87.589	-202.21	648.18	-241.84	-185.79	895.63	-259.5	-155.77	923.59	-324.35	-312.26	74.347	-28.863	-120.52	564.97	156.79	-381.58	858.18	-78.628	-379.97	51.993	-63.832	-29.808	35.909	92.356	-267.25	122.71	-76.279	-259.03	20.172	-132.03	-215	32.154	-46.241	-94.594	404.7	108.72	-334.44	61.567	-107.81	2.0878	53.397	11.148	43.137	65.312	53.699	-164.44	43.858	14.733	-94.462	86.219	-11.953	-114.6	71.434	67.889
342	1.71	-66.804	1422.1	12.402	-176.08	1227	125.33	-188.23	1092.7	214.63	-263.54	937.89	184.29	-156.8	852.66	266.96	-175.65	755.39	296.91	-158.62	1208.2	-238.39	-135.41	1045.5	-305.59	-48.582	863.92	-328.19	1.982	765.48	-330.66	-147.22	641.46	180.91	-152.23	568.1	-197.65	-54.869	1433.2	-83.05	-257.27	204.6	-141.24	-288.89	1157	60.502	-64.777	592.97	141.38	-205.58	563.08	-222.3	-125.52	811.89	-193.95	-90.158	1185.1	-46.574	-81.293	489.56	128.74	-49.537	138.23	39.083	59.568	749.85	-321.72	-84.398	218.96	97.525	-35.609	306	60.951	30.036	794.2	-281.53	-214.81	480.65	-192.88	-128.13	700.07	287.57	-230.52	1271.8	-58.136	-46.687	221.05	49.62	-213.34	971.51	256.56	-119.74	843.21	136.04	-320.83	1074	-42.466	-183.43	1359.8	-116.61	-203.32	384.59	-155.44	-141.26	752.88	232.84	-198.3	1353.5	15.295	-42.249	1077.9	-34.185	-367.74	850.58	26.537	-240.82	201.99	-81.408	-160.86	27.581	-72.393	-207.54	283.42	-87.502	-197.84	647.74	-241.59	-179.73	895.15	-259.55	-149.71	923.29	-324.35	-312.03	74.57	-28.785	-115.72	564.13	156.89	-376.32	857.99	-77.87	-379.85	52.644	-63.805	-11.814	37.055	92.486	-266.51	122.52	-76.215	-259.02	20.172	-131.96	-214.95	32.109	-46.219	-90.037	403.88	108.24	-334.17	61.899	-107.8	19.275	55.615	11.156	60.024	69.031	53.51	-147	40.077	15.071	-78.511	85.02	-11.819	-97.918	69.55	68.07
343	1.715	-61.308	1421.5	12.958	-170.6	1226.3	125.82	-182.87	1092	214.96	-258.15	937.16	184.59	-151.74	852	267.77	-170.72	754.74	297.59	-153.15	1207.8	-237.93	-129.67	1045.4	-305.36	-41.905	864.59	-327.55	9.8337	766.79	-329.31	-141.96	640.65	181.38	-148.21	567.37	-197.52	-49.393	1432.7	-82.493	-255.82	204.35	-141.15	-283.45	1156.3	60.925	-59.954	591.71	141.6	-201.59	562.65	-222.13	-120.18	810.98	-193.48	-84.709	1184.6	-46.179	-77.199	488.49	128.6	-35.803	138.45	39.106	67.605	751.9	-319.86	-73.477	218.11	97.412	-27.958	306.83	60.547	37.226	795.99	-280.06	-211.24	480.26	-192.74	-123.09	699.49	288.64	-225.08	1271.3	-57.604	-35.959	221.42	49.427	-208.15	970.84	256.92	-114.2	842.48	136.33	-315.38	1073.4	-42.09	-177.98	1359.3	-116.06	-200.33	384	-155.36	-135.94	752.2	233.75	-192.82	1352.9	15.847	-36.81	1077.3	-34.24	-362.13	850.09	27.34	-239.41	201.59	-81.298	-160.77	27.524	-72.451	-205.42	282.76	-87.42	-193.45	647.3	-241.35	-173.7	894.67	-259.59	-143.67	923	-324.33	-311.78	74.808	-28.707	-111.07	563.19	157.08	-371.03	857.79	-77.075	-379.74	53.33	-63.772	5.7028	38.437	92.575	-265.77	122.35	-76.149	-259	20.168	-131.88	-214.9	32.067	-46.2	-85.599	403	107.82	-333.9	62.26	-107.78	35.952	58.008	11.122	76.395	72.856	53.255	-129.92	36.701	15.415	-62.949	84.102	-11.7	-81.593	67.991	68.241
344	1.72	-55.807	1420.9	13.537	-165.11	1225.6	126.35	-177.49	1091.2	215.33	-252.71	936.39	184.89	-146.63	851.3	268.59	-165.74	754.04	298.26	-147.72	1207.4	-237.44	-123.93	1045.2	-305.08	-35.304	865.22	-326.92	17.549	768.05	-327.98	-136.75	639.8	181.87	-144.18	566.64	-197.39	-43.919	1432.1	-81.912	-254.36	204.11	-141.06	-278.01	1155.6	61.403	-55.238	590.28	141.86	-197.59	562.23	-221.96	-114.81	810.08	-193.03	-79.26	1184	-45.766	-73.314	487.29	128.61	-22.478	138.84	39.107	75.486	753.86	-318.04	-62.788	217.41	97.302	-20.495	307.64	60.124	44.298	797.69	-278.63	-207.67	479.87	-192.6	-118.01	698.87	289.69	-219.65	1270.7	-57.032	-25.521	221.87	49.215	-202.92	970.13	257.29	-108.59	841.69	136.59	-309.93	1072.8	-41.652	-172.53	1358.8	-115.47	-197.33	383.42	-155.27	-130.55	751.48	234.66	-187.34	1352.3	16.431	-31.354	1076.6	-34.327	-356.49	849.6	28.182	-237.99	201.2	-81.191	-160.68	27.465	-72.517	-203.28	282.1	-87.344	-189.05	646.86	-241.1	-167.71	894.2	-259.62	-137.65	922.71	-324.28	-311.53	75.066	-28.632	-106.55	562.15	157.33	-365.72	857.59	-76.245	-379.61	54.056	-63.734	22.66	40.007	92.61	-265.02	122.2	-76.083	-258.99	20.162	-131.8	-214.85	32.028	-46.186	-81.244	402.07	107.45	-333.64	62.654	-107.77	52.044	60.522	11.034	92.189	76.719	52.925	-113.3	33.728	15.765	-47.855	83.441	-11.601	-65.712	66.74	68.4
